<svg width="130" height="55" viewBox="0 0 130 55" fill="none" xmlns="http://www.w3.org/2000/svg">
<rect y="9" width="130" height="39" rx="19.5" fill="black"/>
<path d="M21.7241 43.509C17.7655 43.509 14.839 42.1659 12.9445 39.4797C11.0783 36.7934 10.1452 33.0328 10.1452 28.1976C10.1452 23.3624 11.0783 19.6017 12.9445 16.9155C14.839 14.2293 17.7655 12.8862 21.7241 12.8862C25.6828 12.8862 28.5952 14.2293 30.4614 16.9155C32.3559 19.6017 33.3031 23.3624 33.3031 28.1976C33.3031 33.0328 32.3559 36.7934 30.4614 39.4797C28.5952 42.1659 25.6828 43.509 21.7241 43.509ZM21.7241 38.3769C23.5338 38.3769 24.7779 37.7124 25.4566 36.3834C26.1634 35.0262 26.5169 33.1459 26.5169 30.7424V25.6103C26.5169 23.2352 26.1634 21.3831 25.4566 20.0541C24.7779 18.6969 23.5338 18.0183 21.7241 18.0183C19.9145 18.0183 18.6562 18.6969 17.9493 20.0541C17.2707 21.3831 16.9314 23.2352 16.9314 25.6103V30.7848C16.9314 33.16 17.2707 35.0262 17.9493 36.3834C18.6562 37.7124 19.9145 38.3769 21.7241 38.3769ZM39.2669 43H32.9896V13.3952H44.4414C45.8834 13.3952 47.17 13.6214 48.301 14.0738C49.4321 14.4979 50.3793 15.12 51.1427 15.94C51.9345 16.76 52.5283 17.7497 52.9241 18.909C53.32 20.0683 53.5179 21.369 53.5179 22.811C53.5179 24.9034 53.0655 26.699 52.1607 28.1976C51.2558 29.6962 49.9693 30.6859 48.301 31.1666L54.1117 43H47.1558L42.1934 32.0148H39.2669V43ZM42.9145 27.0948C44.4131 27.0948 45.4452 26.8121 46.0107 26.2466C46.6045 25.681 46.9014 24.7479 46.9014 23.4472V22.1748C46.9014 20.8741 46.6045 19.941 46.0107 19.3755C45.4452 18.81 44.4131 18.5272 42.9145 18.5272H39.2669V27.0948H42.9145ZM54.4344 43V13.3952H60.8389V37.7831H73.5631V43H54.4344ZM84.0227 43.509C80.0641 43.509 77.1375 42.1659 75.2431 39.4797C73.3768 36.7934 72.4437 33.0328 72.4437 28.1976C72.4437 23.3624 73.3768 19.6017 75.2431 16.9155C77.1375 14.2293 80.0641 12.8862 84.0227 12.8862C87.9813 12.8862 90.8937 14.2293 92.76 16.9155C94.6544 19.6017 95.6017 23.3624 95.6017 28.1976C95.6017 33.0328 94.6544 36.7934 92.76 39.4797C90.8937 42.1659 87.9813 43.509 84.0227 43.509ZM84.0227 38.3769C85.8324 38.3769 87.0765 37.7124 87.7551 36.3834C88.462 35.0262 88.8155 33.1459 88.8155 30.7424V25.6103C88.8155 23.2352 88.462 21.3831 87.7551 20.0541C87.0765 18.6969 85.8324 18.0183 84.0227 18.0183C82.2131 18.0183 80.9548 18.6969 80.2479 20.0541C79.5693 21.3831 79.23 23.2352 79.23 25.6103V30.7848C79.23 33.16 79.5693 35.0262 80.2479 36.3834C80.9548 37.7124 82.2131 38.3769 84.0227 38.3769ZM100.293 43L92.4465 13.3952H99.5296L103.008 28.4521L104.746 36.9772H105.086L106.867 28.4521L110.388 13.3952H117.131L109.285 43H100.293Z" fill="#1BFF07"/>
</svg>
